HIERARCHY
ROOT Hips
{
	OFFSET 0.000000 0.000000 0.000000 
	CHANNELS 6 Xposition Yposition Zposition Yrotation Zrotation Xrotation 
	JOINT Lumbar
	{
		OFFSET 0.000000 0.000000 0.000000 
		CHANNELS 3 Zrotation Xrotation Yrotation
		JOINT Neck
		{
			OFFSET 0.000000 0.445665 0.000000 
			CHANNELS 3 Zrotation Xrotation Yrotation
			End Site
			{
				OFFSET 0.000000 0.227535 0.000000 
			}
		}
		JOINT RightShoulder
		{
			OFFSET 0.019635 0.377685 0.194865 
			CHANNELS 3 Zrotation Xrotation Yrotation
			JOINT RightElbow
			{
				OFFSET 0.000000 -0.243375 0.000000 
				CHANNELS 2 Zrotation Yrotation
				JOINT RightWrist
				{
					OFFSET 0.000000 -0.264825 0.000000 
					CHANNELS 2 Zrotation Xrotation
					End Site
					{
						OFFSET 0.006600 -0.176220 0.000990 
					}
				}
			}
		}
		JOINT LeftShoulder
		{
			OFFSET 0.019635 0.377685 -0.194865 
			CHANNELS 3 Zrotation Xrotation Yrotation
			JOINT LeftElbow
			{
				OFFSET 0.000000 -0.243375 0.000000 
				CHANNELS 2 Zrotation Yrotation
				JOINT LeftWrist
				{
					OFFSET 0.000000 -0.264825 0.000000 
					CHANNELS 2 Zrotation Xrotation
					End Site
					{
						OFFSET 0.006600 -0.176220 -0.000990 
					}
				}
			}
		}
	}
	JOINT RightHip
	{
		OFFSET 0.052140 -0.069960 0.075570 
		CHANNELS 3 Zrotation Xrotation Yrotation
		JOINT RightKnee
		{
			OFFSET 0.000000 -0.402270 0.000000 
			CHANNELS 1 Zrotation
			JOINT RightAnkle
			{
				OFFSET 0.000000 -0.404085 0.000000 
				CHANNELS 3 Zrotation Xrotation Yrotation
				End Site
				{
					OFFSET 0.204105 -0.089430 0.008415 
				}
			}
		}
	}
	JOINT LeftHip
	{
		OFFSET 0.052140 -0.069960 -0.075570 
		CHANNELS 3 Zrotation Xrotation Yrotation
		JOINT LeftKnee
		{
			OFFSET 0.000000 -0.402270 0.000000 
			CHANNELS 1 Zrotation
			JOINT LeftAnkle
			{
				OFFSET 0.000000 -0.404085 0.000000 
				CHANNELS 3 Zrotation Xrotation Yrotation
				End Site
				{
					OFFSET 0.204105 -0.089430 -0.008415 
				}
			}
		}
	}
}
MOTION
Frames: 11
Frame Time: 0.02
0 0.95578 -0 178.33052 0 -4.18152 4.20607 3.95994 -0.40754 -24.50124 5.19894 4.48941 8.30184 -71.05956 -87.41969 17.85759 60.41792 -19.94217 0.02239 37.26861 64.59744 52.6675 18.96354 -92.57875 -20.18463 5.94806 0.9638 8.06336 -1.39906 -11.09025 4.54484 -5.80626 -15.53417 -0.51108 2.35204 1.36132 -6.14943 4.59231 5.85705 9.7317
9e-05 0.95578 3e-05 178.22393 0 -4.18148 4.29035 3.93593 -0.36097 -24.455 5.18225 4.522 8.2737 -71.02017 -87.53671 17.75446 60.44524 -19.97003 0.00986 36.86907 64.636 52.99041 18.94982 -92.47212 -20.05624 5.86912 0.97014 8.00266 -1.85432 -11.08574 4.5267 -5.90503 -14.82733 -0.52948 2.34717 1.42989 -6.1259 4.59107 5.86703 9.75475
0.00017 0.95577 7e-05 178.11804 0 -4.18143 4.37438 3.91216 -0.31481 -24.40897 5.16545 4.55403 8.24472 -70.98062 -87.65376 17.65228 60.4708 -19.99831 -0.00329 36.46946 64.67529 53.31479 18.93554 -92.36481 -19.92925 5.79089 0.97615 7.94236 -2.30622 -11.08096 4.50821 -6.00281 -14.12575 -0.5479 2.34228 1.49805 -6.10252 4.58993 5.87696 9.77763
0.00024 0.95576 0.0001 178.01397 0 -4.18124 4.45801 3.88889 -0.27001 -24.36275 5.14792 4.5841 8.21404 -70.9397 -87.77066 17.55263 60.48596 -20.02819 -0.02075 36.06645 64.71816 53.6475 18.91846 -92.25339 -19.80644 5.7152 0.98115 7.88313 -2.74868 -11.07523 4.48857 -6.09765 -13.43866 -0.56658 2.33733 1.56526 -6.07922 4.58897 5.88671 9.79983
0.00036 0.95575 0.00013 177.90032 0 -4.18169 4.54349 3.86268 -0.2182 -24.31686 5.13406 4.62449 8.19467 -70.90563 -87.88672 17.43929 60.55191 -20.0492 -0.01743 35.68235 64.74239 53.93527 18.91571 -92.1633 -19.66128 5.6266 0.99179 7.81832 -3.24061 -11.07477 4.47552 -6.20813 -12.67526 -0.58384 2.33277 1.63753 -6.0552 4.58683 5.8973 9.82538
0.00038 0.95574 0.00017 177.80701 0 -4.18084 4.62514 3.84289 -0.18115 -24.27078 5.11259 4.64306 8.14983 -70.85738 -88.00553 17.35521 60.5133 -20.08921 -0.0567 35.25807 64.80579 54.31832 18.88301 -92.02851 -19.56369 5.56505 0.99033 7.76532 -3.62781 -11.06302 4.44823 -6.28535 -12.0737 -0.6041 2.32736 1.69898 -6.03293 4.58735 5.90619 9.84396
0.00012 0.95572 0.00019 177.7697 0 -4.17605 4.69683 3.83944 -0.18626 -24.21911 5.06781 4.59928 8.045 -70.76496 -88.12588 17.35076 60.14883 -20.18236 -0.23102 34.71228 64.98491 54.98046 18.76063 -91.75927 -19.5983 5.58232 0.95531 7.74522 -3.72261 -11.01958 4.38219 -6.27003 -11.92174 -0.63358 2.31969 1.73175 -6.0131 4.59409 5.90992 9.84177
-0.00024 0.9557 0.00021 177.75293 0 -4.17003 4.76465 3.84272 -0.20596 -24.16833 5.0158 4.53376 7.91318 -70.65908 -88.24996 17.37601 59.6848 -20.29459 -0.44562 34.12773 65.20226 55.73631 18.60921 -91.44676 -19.68076 5.62619 0.90801 7.737 -3.71239 -10.96473 4.30166 -6.22125 -11.93255 -0.66598 2.31115 1.75343 -5.99538 4.60371 5.91204 9.83277
-0.00056 0.95567 0.00024 177.72682 0 -4.16481 4.83391 3.84382 -0.21817 -24.1201 4.96846 4.47959 7.78591 -70.56243 -88.37682 17.38848 59.29055 -20.3979 -0.63034 33.56651 65.39758 56.44012 18.47541 -91.16067 -19.74094 5.65518 0.86642 7.72315 -3.75238 -10.91547 4.22728 -6.18817 -11.86694 -0.69642 2.30294 1.77944 -5.97832 4.61278 5.91522 9.82792
-0.00087 0.95565 0.00025 177.70066 0 -4.15858 4.9044 3.84119 -0.23429 -24.05854 4.91503 4.41945 7.68821 -70.45246 -88.48599 17.39808 58.79455 -20.5026 -0.86273 32.97937 65.61303 57.18489 18.3228 -90.84553 -19.80367 5.69582 0.82446 7.7102 -3.78182 -10.86479 4.15458 -6.15295 -11.81153 -0.72936 2.29501 1.80837 -5.95476 4.61877 5.91702 9.8188
-0.00123 0.95562 0.0003 177.6796 0 -4.15417 4.97153 3.84794 -0.2454 -24.02602 4.87289 4.36626 7.52626 -70.36728 -88.63137 17.4205 58.48462 -20.6085 -1.00687 32.43938 65.79502 57.86514 18.20266 -90.58132 -19.87208 5.71868 0.78013 7.69828 -3.80833 -10.81402 4.07516 -6.11431 -11.77374 -0.75801 2.28631 1.82868 -5.94485 4.63172 5.92128 9.81673
